<svg xmlns="http://www.w3.org/2000/svg" viewBox="0 0 400 260" font-family="Helvetica, Arial, sans-serif" font-size="11">
  <rect width="400" height="260" fill="#fff"/>
  <rect x="40" y="60" width="320" height="40" fill="#f7dec1" stroke="#623c11"/>
  <rect x="40" y="100" width="320" height="60" fill="#f0c18c" stroke="#623c11"/>
  <g stroke="#343434" stroke-width="3">
    <line x1="120" y1="50" x2="120" y2="150"/>
    <line x1="200" y1="50" x2="200" y2="150"/>
    <line x1="280" y1="50" x2="280" y2="150"/>
  </g>
  <g stroke="#b32c06" stroke-width="2" fill="#b32c06">
    <line x1="200" y1="10" x2="200" y2="45"/>
    <path d="M195 38 L200 48 L205 38 Z"/>
  </g>
  <text x="208" y="24" fill="#b32c06">P = 1250 lbs</text>
  <g stroke="#686868" fill="none">
    <line x1="120" y1="190" x2="280" y2="190"/>
    <line x1="120" y1="184" x2="120" y2="196"/>
    <line x1="200" y1="184" x2="200" y2="196"/>
    <line x1="280" y1="184" x2="280" y2="196"/>
  </g>
  <text x="148" y="208" fill="#686868">3 in</text>
  <text x="228" y="208" fill="#686868">3 in</text>
  <text x="44" y="78" fill="#343434">Side member 1.5 in</text>
  <text x="44" y="136" fill="#343434">Main member 3.5 in</text>
  <text x="40" y="245" fill="#343434" font-weight="bold">Section A-A</text>
</svg>
