<?xml version="1.0" encoding="utf-8"?>
<!-- Generator: Adobe Illustrator 21.1.0, SVG Export Plug-In . SVG Version: 6.00 Build 0)  -->
<svg version="1.1" id="Layer_1" xmlns="http://www.w3.org/2000/svg" xmlns:xlink="http://www.w3.org/1999/xlink" x="0px" y="0px"
	 viewBox="0 0 190 126.7" style="enable-background:new 0 0 190 126.7;" xml:space="preserve">
<style type="text/css">
	.st0{fill:#FFFFFF;}
</style>
<path class="st0" d="M183.6,123.5c0-1.8,1.5-3.2,3.2-3.2s3.2,1.3,3.2,3.2c0,1.8-1.5,3.2-3.2,3.2S183.6,125.3,183.6,123.5z
	 M186.8,126.2c1.4,0,2.6-1.1,2.6-2.6s-1.1-2.6-2.6-2.6c-1.4,0-2.6,1.1-2.6,2.6C184.2,125,185.4,126.2,186.8,126.2z M186.1,125.3
	h-0.6v-3.6h1.4c0.9,0,1.3,0.3,1.3,1s-0.4,0.9-0.9,1l1,1.6h-0.6l-1-1.6h-0.6L186.1,125.3L186.1,125.3z M186.8,123.3
	c0.5,0,0.9,0,0.9-0.6c0-0.5-0.4-0.5-0.8-0.5h-0.8v1.1H186.8z"/>
<g>
	<g>
		<g>
			<g>
				<g>
					<path class="st0" d="M91.8,17.8h-4.4v6.5h4.4c2.1,0,3.6-0.9,3.6-3.2C95.4,18.7,93.8,17.8,91.8,17.8z"/>
					<path class="st0" d="M137.5,17.6c-4.3,0-5.9,3.8-5.9,7.5c0,3.8,1.6,7.5,5.9,7.5s5.9-3.8,5.9-7.5S141.8,17.6,137.5,17.6z"/>
					<path class="st0" d="M0,0.1v51.3h189.9V0L0,0.1z M26.8,38.4c-5.8,0-11-2.6-11-9.1h6.6c0.1,3,2,3.9,4.8,3.9c2,0,4.1-0.7,4.1-2.6
						c0-2.2-3.6-2.7-7.3-3.7c-3.6-1-7.4-2.7-7.4-7.3c0-5.5,5.6-7.7,10.3-7.7c5,0,10.1,2.5,10.2,8.2h-6.6c0.1-2.3-2.1-3.1-4.1-3.1
						c-1.4,0-3.2,0.5-3.2,2.2c0,2,3.7,2.3,7.4,3.3s7.4,2.7,7.4,7.3C37.9,36.3,32.4,38.4,26.8,38.4z M46.1,37.8h-6.6V12.5h6.6V37.8z
						 M77.6,37.8h-6.2V18.6h-0.1L66,37.8h-5l-5.3-19.3h-0.1v19.3h-6.2V12.5h9.7l4.4,16.9h0.1L68,12.5h9.7L77.6,37.8L77.6,37.8z
						 M92.8,29.4h-5.4v8.5h-6.6V12.5h12c4.7,0,9.2,2.2,9.2,8.2C102,26.9,98.4,29.4,92.8,29.4z M113.2,38.4c-5.8,0-11-2.6-11-9.1h6.6
						c0.1,3,2,3.9,4.8,3.9c2,0,4.1-0.7,4.1-2.6c0-2.2-3.6-2.7-7.3-3.7c-3.6-1-7.4-2.7-7.4-7.3c0-5.5,5.6-7.7,10.3-7.7
						c5,0,10.1,2.5,10.2,8.2h-6.6c0.1-2.3-2.1-3.1-4.1-3.1c-1.4,0-3.2,0.5-3.2,2.2c0,2,3.7,2.3,7.4,3.3c3.7,1,7.4,2.7,7.4,7.3
						C124.3,36.3,118.8,38.4,113.2,38.4z M137.5,38.4c-8,0-12.5-5.9-12.5-13.2c0-7.4,4.5-13.2,12.5-13.2S150,17.9,150,25.2
						S145.5,38.4,137.5,38.4z M174,37.8h-6.8L158.4,22h-0.1v15.8h-6.2V12.5h6.8l8.8,15.6h0.1V12.5h6.2V37.8z"/>
				</g>
				<g>
					<path class="st0" d="M72.2,82.3c-2.1,0-2.8,1.9-2.8,6.4s0.7,6.4,2.8,6.4c2.1,0,2.8-1.9,2.8-6.4C74.9,84.3,74.2,82.3,72.2,82.3z
						"/>
					<path class="st0" d="M111.7,91.1c1.5,0,2-1.9,2-4.7s-0.5-4.7-2-4.7s-2,1.9-2,4.7S110.2,91.1,111.7,91.1z"/>
					<path class="st0" d="M112.7,100c-2.9,0-5.2,0.2-5.2,1.6c0,1.1,2.3,1.6,5.2,1.6c2.9,0,5.2-0.5,5.2-1.6
						C117.9,100.2,115.6,100,112.7,100z"/>
					<path class="st0" d="M170.8,82.3c-1.7,0-2.6,1.3-2.6,3.3v1h5.2v-1C173.4,83.7,172.4,82.3,170.8,82.3z"/>
					<path class="st0" d="M0,54.7v62.6h189.9V54.7H0z M156.8,71.7c1.7,0,3,1.4,3,3.3s-1.3,3.3-3,3.3s-3-1.4-3-3.3
						C153.8,73.2,155.1,71.7,156.8,71.7z M23.7,98.4c-2.7,0-5.3-0.6-7.5-2.4l-0.9,2h-2.9v-9.9h3.2c0.4,4,3.4,6.8,7.5,6.8
						c1.8,0,4-1.1,4-3.3c0-5.4-14.9-1-14.9-11.9c0-6.3,5.1-8,9.9-8c2.3,0,4.6,0.8,6.6,2.2l0.6-1.8h2.9v9.3H29
						c-0.5-4-3.7-6.2-6.8-6.2c-2,0-3.9,0.7-3.9,3.3c0,4.8,14.9,0.9,14.9,11.8C33.2,96.3,28.4,98.4,23.7,98.4z M47.1,92.4
						c0,3.7-1.7,5.8-5.8,5.8c-3.6,0-5.5-1.9-5.5-5.8v-9.5h-2.3v-3c3.4,0,4.3-3.9,4.6-7.1h3.4v7.1h4.2v3h-4.2v10.4
						c0,0.8,0.4,1.4,1.2,1.4c1.3,0,1.7-1,1.7-2.8v-3h2.8v3.5H47.1z M60.7,87c-1.4,0-2.8-0.8-2.8-2.5c0-1.3,0.7-2.1,1.8-2.3
						c-0.3-0.4-0.7-0.4-1.1-0.4c-1.8,0-3,2.5-3,4.4V93c0,1.1,0.2,1.6,1.2,1.6h1.4v3h-11v-3h1.4c1,0,1.2-0.6,1.2-1.6v-8.4
						c0-1.1-0.2-1.6-1.2-1.6h-1.4v-3h8.1v3h0.1c0.7-1.8,2-3.6,4-3.6c2.1,0,3.9,1.8,3.9,4.3C63.4,85.3,62.3,87,60.7,87z M72.2,98.2
						c-5.1,0-8.9-3.4-8.9-9.4c0-6.1,3.8-9.4,8.9-9.4s8.9,3.4,8.9,9.4C81.1,94.8,77.3,98.2,72.2,98.2z M102.8,97.6H92.6v-3h0.7
						c1,0,1.2-0.6,1.2-1.6v-6.5c0-2.2-0.3-3.7-2.7-3.7c-1.6,0-2.6,1.6-2.6,3.2v7c0,1.1,0.2,1.6,1.2,1.6h0.8v3H80.9v-3h1.4
						c1,0,1.2-0.6,1.2-1.6v-8.4c0-1.1-0.2-1.6-1.2-1.6h-1.4v-3H89v2.9h0.1c1.5-2.4,3.1-3.5,5.9-3.5c3.9,0,5.2,2.5,5.2,6.4V93
						c0,1.1,0.2,1.6,1.2,1.6h1.3v3H102.8z M111.9,105.7c-5,0-8.7-0.9-8.7-3.7c0-1.8,1.6-2.6,2.9-2.8V99c-1.3-0.5-2.6-1.7-2.6-3.4
						c0-2.3,1.1-3.1,3-3.9c-1.6-1.3-2.3-3-2.3-5.8c0-4.6,4-6.7,7.7-6.7c1.9,0,3.7,0.7,5.2,1.7c1.1-1,2.3-1.7,3.8-1.7
						c1.9,0,3.8,1.3,3.8,3.6c0,1.7-1,2.7-2.6,2.7c-1.1,0-1.9-0.9-1.9-2.2c0-0.8,0.4-1.4,1-1.9c-0.8-0.2-1.8-0.7-3,0.8
						c0.6,1.1,1.2,2.5,1.2,3.9c0,5-3.7,7.2-7.9,7.2c-1.2,0-2.4-0.2-3.5-0.6c-0.3,0.1-0.7,0.5-0.7,1.1c0,0.9,1.2,1.4,1.8,1.4h7
						c3,0,6,0.8,6,4.7C122,104.7,117.3,105.7,111.9,105.7z M130.9,90.6H122v-4.1h8.8L130.9,90.6L130.9,90.6z M150.1,82.1h-3.2
						c0-3.9-1-6.3-5-6.3v17c0,0.9,0.5,1.5,1.3,1.5h2.1v3.3h-13.4v-3.3h2.1c0.9,0,1.3-0.6,1.3-1.5v-17c-4,0-5,2.4-5,6.3h-3.2v-9.6
						H150L150.1,82.1L150.1,82.1z M162.5,97.6h-11.1v-3h1.5c1,0,1.2-0.6,1.2-1.6v-8.4c0-1.1-0.2-1.6-1.2-1.6h-1.6v-3h8.6v13.1
						c0,1.1,0.2,1.6,1.2,1.6h1.4L162.5,97.6L162.5,97.6z M171.5,94.9c1.2,0,3.2-1,3.5-3.3h4c-0.5,4.6-4.6,6.5-8.3,6.5
						c-5.9,0-8.7-3.6-8.7-9.4c0-5.9,3.8-9.4,8.7-9.4c5.6,0,8.8,4.4,8.8,10.3h-11.4C168.1,92.3,168.7,94.9,171.5,94.9z"/>
				</g>
			</g>
		</g>
	</g>
</g>
</svg>
